<?xml version="1.0" encoding="utf-8"?>
<!-- Generator: Adobe Illustrator 23.0.1, SVG Export Plug-In . SVG Version: 6.00 Build 0)  -->
<svg version="1.1" xmlns="http://www.w3.org/2000/svg" xmlns:xlink="http://www.w3.org/1999/xlink" x="0px" y="0px"
	 viewBox="0 0 640 480" style="enable-background:new 0 0 640 480;" xml:space="preserve">
<style type="text/css">
	.st0{fill:#5AE4A8;}
	.st1{fill:#FFFFFF;}
	.st2{font-family:'Castellar';}
	.st3{font-size:72px;}
	.st4{fill:none;stroke:#FFFFFF;stroke-width:3;stroke-miterlimit:10;}
	.st5{fill:none;stroke:#FFFFFF;stroke-miterlimit:10;}
</style>
<g id="Layer_1">
	<g>
		<rect x="0.5" y="-4.5" class="st0" width="642" height="486"/>
		<path d="M642-4v485H1V-4H642 M643-5H0v487h643V-5L643-5z"/>
	</g>
	<text transform="matrix(1 0 0 1 96.6665 238.397)" class="st1 st2 st3">comosyst</text>
</g>
<g id="Layer_2">
</g>
<g id="Layer_3">
	<ellipse class="st4" cx="318" cy="209.5" rx="227" ry="71.5"/>
	<path class="st4" d="M324.5,85.5"/>
	<path class="st4" d="M141.5,183.5"/>
	<path class="st4" d="M231.5,161.5"/>
	<g>
		<g>
			<path class="st5" d="M138.5,179.5c0,0,110-45.62,235.82-2.03"/>
			<g>
				<path class="st1" d="M380,179.5c-3.03,0.07-6.95,0.62-9.63,1.7l3.18-3.93l-0.07-5.06C374.92,174.73,377.66,177.58,380,179.5z"/>
			</g>
		</g>
	</g>
</g>
</svg>
